<svg xmlns="http://www.w3.org/2000/svg" width="100%" height="100%" viewBox="0 0 155 155">
  <g id="Group_923" data-name="Group 923" transform="translate(-187 -1953.957)">
    <circle id="Ellipse_117" data-name="Ellipse 117" cx="77.5" cy="77.5" r="77.5" transform="translate(187 1953.957)" fill="#fff"/>
    <path id="Path_1767" data-name="Path 1767" d="M95.557,40.878H89.851a1.357,1.357,0,0,0-1.267.993l-3.891,11.7h-3.8l-3.811-6.345a1.46,1.46,0,0,0-1.232-.708H70.143V42.259a1.334,1.334,0,0,0-1.251-1.414,1.369,1.369,0,0,0-.153,0H58.9v-5.6h4.234a1.323,1.323,0,0,0,1.4-1.4V25.37A1.324,1.324,0,0,0,63.266,24a1.214,1.214,0,0,0-.129,0H37.758a1.323,1.323,0,0,0-1.4,1.4v8.467a1.323,1.323,0,0,0,1.4,1.4h4.234v5.637H30.717a1.314,1.314,0,0,0-.993.422,1.287,1.287,0,0,0-.422.993v4.222H19.431a1.337,1.337,0,0,0-1.4,1.262,1.368,1.368,0,0,0,0,.153V56.42H15.209V52.152a1.337,1.337,0,0,0-1.262-1.4,1.37,1.37,0,0,0-.153,0,1.323,1.323,0,0,0-1.4,1.4V63.438a1.323,1.323,0,0,0,1.4,1.4,1.334,1.334,0,0,0,1.414-1.251,1.367,1.367,0,0,0,0-.153V59.2h2.819V70.479a1.335,1.335,0,0,0,1.214,1.446,1.313,1.313,0,0,0,.189,0H30.01l5.215,7.885a1.748,1.748,0,0,0,1.141.571H75.849a1.348,1.348,0,0,0,1.267-.844l3.777-7.611h3.948l3.8,7.611a1.367,1.367,0,0,0,1.267.844h5.706a1.337,1.337,0,0,0,1.4-1.262,1.372,1.372,0,0,0,0-.153V42.259a1.338,1.338,0,0,0-1.461-1.381ZM29.3,69.075H20.846V49.334H29.3Zm9.871-36.653V26.785H61.722v5.637Zm16.912,2.819v5.637H44.81V35.241ZM78.633,69.92l-3.8,7.611H37.05l-4.93-7.474V43.7H67.359v4.268a1.336,1.336,0,0,0,1.3,1.372c.04,0,.079,0,.118,0h6.2l3.663,6.117Zm5.637-.844H81.452V56.386h2.819Zm9.837,8.456H90.684l-3.674-7.075V54.982L90.821,43.7h3.286Z" transform="translate(210.213 1977.338)" fill="#1d1d1d"/>
  </g>
</svg>
