<svg xmlns="http://www.w3.org/2000/svg" width="100%" height="100%" viewBox="0 0 774.064 216.81">
  <g id="Group_919" data-name="Group 919" transform="translate(-187 -921.225)">
    <rect id="Rectangle_423" data-name="Rectangle 423" width="774.064" height="216.81" transform="translate(187 921.225)" fill="#231f20"/>
    <rect id="Rectangle_485" data-name="Rectangle 485" width="773" height="215" transform="translate(187 922)" fill="rgb(255, 99, 0)"/>
    <g id="Rectangle_487" data-name="Rectangle 487" transform="translate(195 929)" fill="none" stroke="#fff" stroke-width="3">
      <rect width="756" height="200" stroke="none"/>
      <rect x="1.5" y="1.5" width="753" height="197" fill="none"/>
    </g>
    <g id="Group_815" data-name="Group 815" transform="translate(233.926 948.547)">
      <text id="Senior_citizens_65" data-name="Senior citizens $65" transform="translate(0 35)" fill="#fff" font-size="36" font-family="helvetica, arial, Futura PT" font-weight="700"><tspan x="0" y="0">SENIOR CITIZENS $65</tspan></text>
      <text id="full_synthetic_oil_replacement" data-name="full synthetic oil 
replacement" transform="translate(0 73.297)" fill="#fff" font-size="36" font-family="helvetica, arial, Futura PT" font-weight="700"><tspan x="0" y="0">FULL SYNTHETIC OIL </tspan><tspan x="0" y="40">REPLACEMENT</tspan></text>
    </g>
    <path id="Path_2006" data-name="Path 2006" d="M0,0H55.71" transform="translate(236.543 1086.574)" fill="none" stroke="#fff" stroke-width="5"/>
    <path id="Path_2002" data-name="Path 2002" d="M-2370.734-644.068v159.609" transform="translate(3091.587 1592.615)" fill="none" stroke="#fff" stroke-width="5" stroke-dasharray="10"/>
    <g id="Group_914" data-name="Group 914" transform="translate(788.547 963.184)">
      <path id="Path_1783" data-name="Path 1783" d="M85.2,42.339a3.726,3.726,0,0,0,.855-2.189c-.132-2.235-1.913-3.375-4.1-4.426-4.707-2.121-13.287-3.711-23.909-4.489a16.915,16.915,0,0,0-3.2-19.428L43.024,0,42.013,1.011,31.234,11.779a16.859,16.859,0,0,0-3.206,19.46,130.428,130.428,0,0,0-14.686,1.832,42.737,42.737,0,0,0-9.234,2.653C1.913,36.773.129,37.914,0,40.148a3.7,3.7,0,0,0,.8,2.128c.01.013.013.03.024.043L34.608,81.465v23.986l.6.429a14.864,14.864,0,0,0,8.024,2.466h.016a13.037,13.037,0,0,0,7.549-2.455l.614-.429V81.488ZM52.708,33.791a13.713,13.713,0,0,1-19.326,0,18.139,18.139,0,0,1-2.194-2.76,13.988,13.988,0,0,1,2.073-17.22l9.767-9.756,9.781,9.779a14.054,14.054,0,0,1,2.073,17.2A20.733,20.733,0,0,1,52.708,33.791ZM3.259,39.575c1.346-1.371,6.472-3.121,13.535-4.2,3.787-.6,8.176-1.074,12.953-1.386a17.059,17.059,0,0,0,1.487,1.721,16.566,16.566,0,0,0,25.095-1.716,131.407,131.407,0,0,1,15.836,1.894,40.048,40.048,0,0,1,8.589,2.446,7.783,7.783,0,0,1,2.039,1.242c.387.374.391.553.391.574a.593.593,0,0,1-.143.291l0,0-.158.184c-.03.033-.05.059-.089.095-1.346,1.374-6.475,3.124-13.534,4.2a173.069,173.069,0,0,1-26.23,1.812,161.893,161.893,0,0,1-29.139-2.324A40.335,40.335,0,0,1,5.3,41.968a7.7,7.7,0,0,1-2.037-1.246c-.386-.374-.394-.549-.394-.574S2.875,39.949,3.259,39.575Zm45.278,64.368a9.956,9.956,0,0,1-5.308,1.534,11.759,11.759,0,0,1-4.578-.981c-.477-.206-.877-.411-1.176-.578V80.93h-.02a1.41,1.41,0,0,0-.333-.938L7.672,45.863c7.69,2.3,20.571,3.725,35.355,3.742a164.7,164.7,0,0,0,29.681-2.374c2.112-.409,3.983-.862,5.645-1.356L48.889,80.018a1.425,1.425,0,0,0-.333.938h-.014Z" transform="translate(0)" fill="#fff" stroke="#fff" stroke-width="0.6"/>
      <path id="Path_1784" data-name="Path 1784" d="M32.389,76.692,31.377,77.7l-4.532,4.527a7.872,7.872,0,1,0,11.1.013Zm3.524,14.751a5.031,5.031,0,0,1-7.041-7.188l3.519-3.513,3.524,3.526a5.083,5.083,0,0,1,0,7.175Z" transform="translate(10.636 33.27)" fill="#fff" stroke="#fff" stroke-width="0.6"/>
    </g>
  </g>
</svg>
