<svg xmlns="http://www.w3.org/2000/svg" xmlns:xlink="http://www.w3.org/1999/xlink" width="308" height="246.565" viewBox="0 0 308 246.565">
  <defs>
    <clipPath id="clip-path">
      <rect id="Rectangle_571" data-name="Rectangle 571" width="308" height="246.565" rx="27.465" transform="translate(-3786.758 2864.949)" fill="none"/>
    </clipPath>
  </defs>
  <g id="Group_1161" data-name="Group 1161" transform="translate(3786.758 -2864.949)">
    <rect id="Rectangle_568" data-name="Rectangle 568" width="308" height="246.565" rx="27.465" transform="translate(-3786.758 2864.949)" fill="#212121"/>
    <g id="Group_1160" data-name="Group 1160">
      <g id="Group_1159" data-name="Group 1159" clip-path="url(#clip-path)">
        <g id="Group_1158" data-name="Group 1158">
          <g id="Group_1134" data-name="Group 1134">
            <path id="Path_2141" data-name="Path 2141" d="M-3648.357,2973.5" fill="#1540c2" stroke="#fff" stroke-miterlimit="10" stroke-width="4"/>
          </g>
          <g id="Group_1135" data-name="Group 1135">
            <path id="Path_2142" data-name="Path 2142" d="M-3611.972,2932.45" fill="#1540c2" stroke="#fff" stroke-miterlimit="10" stroke-width="4"/>
          </g>
          <g id="Group_1138" data-name="Group 1138">
            <g id="Group_1136" data-name="Group 1136">
              <path id="Path_2143" data-name="Path 2143" d="M-3777.712,3083.34a32.4,32.4,0,0,1-21.058-7.751l-4.229-4,5.721-1.085c.243-.047,24.323-4.771,25.911-18.249.82-6.975-.641-12.986-4.118-16.925-3.014-3.415-7.477-5.241-12.908-5.282l-.433,0a60.541,60.541,0,0,0-22.47,4.33l-6.492,2.929,2.475-6.676c.269-.723,6.792-17.768,25.319-22.679a59.651,59.651,0,0,1,15.971-2.116c1.608,0,3.109.053,4.544.1,1.251.044,2.448.088,3.626.088a21.861,21.861,0,0,0,9.536-1.837,103.73,103.73,0,0,0,17.878-10.75c-14.992-15.185-24.52-41.485-28.038-52.524-3.176-9.965-18.965-22.992-19.125-23.123l-16.351-13.13,62.313-70.016,15.923,16.816c.151.167,9.9,10.9,20.192,12.789a40.845,40.845,0,0,0,7.361.581c2.569,0,5.208-.154,7.761-.3,2.49-.147,5.064-.3,7.514-.3,5.657,0,9.672.824,13.018,2.675,7.061,3.9,14.837,12.122,18.317,16.027,7.782-5.906,22.852-18.58,25.826-26.826.641-1.774,1.3-3.912,2.054-6.388,4.123-13.47,11.027-36.013,31.222-43.342a39.624,39.624,0,0,1,13.544-2.435,41.57,41.57,0,0,1,26.723,10.168l3.893,3.686-5.187,1.355c-9.009,2.354-32.769,11.15-34.5,23.421-1.125,7.945.735,15.405,5.1,20.468,3.768,4.371,9.126,6.707,15.492,6.755l.475,0c15.241,0,25.039-5.6,25.136-5.659l6.221-3.623-1.842,6.954c-.235.89-6.041,21.848-28.214,27.727a71.2,71.2,0,0,1-19.064,2.525c-1.928,0-3.726-.063-5.446-.124-1.511-.052-2.96-.1-4.383-.1a26.88,26.88,0,0,0-11.72,2.26c-1.29.568-2.553,1.154-3.783,1.747a84.783,84.783,0,0,0-27.924,21.711l-78.625,91.562-.221.176c-5.939,4.725-21.946,18.632-24.655,26.142-.6,1.675-1.18,3.719-1.848,6.085-3.144,11.139-7.894,27.971-24.5,34A34.922,34.922,0,0,1-3777.712,3083.34Z" fill="#0f0f0f"/>
            </g>
            <g id="Group_1137" data-name="Group 1137">
              <path id="Path_2144" data-name="Path 2144" d="M-3576.908,2806.919a38.772,38.772,0,0,1,24.678,9.354s-34.3,8.937-36.7,25.883c-2.313,16.355,6.883,30.491,23.515,30.616l.5,0c16.343,0,26.64-6.068,26.64-6.068s-5.343,20.111-26.1,25.614a68.583,68.583,0,0,1-18.3,2.426c-3.623,0-6.781-.228-9.828-.228a30,30,0,0,0-12.922,2.514c-1.319.582-2.613,1.181-3.872,1.788a88.323,88.323,0,0,0-28.9,22.466l-78.432,91.336s-22.009,17.5-25.6,27.46-6.1,31.595-24.567,38.295a31.812,31.812,0,0,1-10.909,1.987,29.515,29.515,0,0,1-19.015-6.937s26.447-4.98,28.313-20.822c1.776-15.082-6.135-25.428-19.957-25.532l-.453,0a62.877,62.877,0,0,0-23.7,4.594s6.041-16.265,23.293-20.837a56.983,56.983,0,0,1,15.209-2.017c3.011,0,5.636.189,8.168.189a24.935,24.935,0,0,0,10.739-2.088c10.6-4.677,21.264-13.22,21.264-13.22-16.521-14.633-26.908-44.628-29.792-53.68-3.486-10.938-20.073-24.521-20.073-24.521l-13.934-11.189,58.077-65.257,13.7,14.463s10.366,11.57,21.815,13.669a43.777,43.777,0,0,0,7.9.63c5.212,0,10.457-.6,15.277-.6,4.312,0,8.283.481,11.579,2.3,8.863,4.9,19.314,17.457,19.314,17.457s24.747-17.869,29.067-29.849,9.275-39.881,31.493-47.943a36.506,36.506,0,0,1,12.528-2.256m0-5.951h0a42.591,42.591,0,0,0-14.558,2.613c-21.591,7.835-28.767,31.268-33.054,45.268-.747,2.439-1.391,4.545-2.007,6.25-2.294,6.364-13.767,16.84-22.67,23.813-4.1-4.4-10.9-11.109-17.235-14.611-4.883-2.7-10.291-3.045-14.457-3.045-2.537,0-5.156.153-7.69.3-2.51.147-5.1.3-7.587.3a37.962,37.962,0,0,1-6.823-.533c-7.75-1.421-15.95-8.99-18.456-11.787l-.055-.061-.056-.06-13.7-14.462-4.457-4.707-4.308,4.842-58.078,65.257-4.162,4.676,4.881,3.919,13.934,11.19c4.191,3.44,15.718,14.121,18.129,21.688,3.4,10.66,12.3,35.288,26.384,51.168a92.8,92.8,0,0,1-14.589,8.48,19.15,19.15,0,0,1-8.336,1.583c-1.107,0-2.28-.041-3.521-.085-1.461-.051-2.972-.1-4.647-.1a62.378,62.378,0,0,0-16.734,2.215c-20,5.3-27.056,23.735-27.346,24.517l-4.98,13.407,13.02-5.917a57.716,57.716,0,0,1,21.238-4.061h.408c4.561.035,8.26,1.513,10.7,4.277,2.909,3.3,4.114,8.485,3.393,14.609-1.1,9.328-17.762,14.571-23.513,15.672l-11.411,2.185,8.432,7.985a35.643,35.643,0,0,0,23.1,8.564,37.883,37.883,0,0,0,12.939-2.344c18.04-6.546,23.04-24.261,26.349-35.984.653-2.313,1.217-4.31,1.785-5.886,2.078-5.761,15.114-17.983,23.707-24.822l.441-.352.369-.428,78.431-91.337a81.909,81.909,0,0,1,26.968-20.981c1.243-.6,2.485-1.172,3.693-1.7a24.156,24.156,0,0,1,10.519-2.007c1.353,0,2.774.05,4.279.1,1.747.061,3.555.125,5.549.125a74.016,74.016,0,0,0,19.827-2.625c23.824-6.315,30.074-28.881,30.328-29.838l3.725-14.019-12.5,7.364c-.065.037-9.282,5.244-23.619,5.244l-.453,0c-5.484-.041-10.069-2.02-13.26-5.723-3.8-4.413-5.41-11.013-4.407-18.109,1.386-9.8,22.368-18.353,32.313-20.958l10.363-2.716-7.778-7.364a44.8,44.8,0,0,0-28.768-10.983Z" fill="#212121"/>
            </g>
          </g>
          <g id="Group_1151" data-name="Group 1151">
            <g id="Group_1141" data-name="Group 1141">
              <g id="Group_1139" data-name="Group 1139">
                <path id="Path_2145" data-name="Path 2145" d="M-3664.126,3017.3a12.645,12.645,0,0,1-9.182-3.959l-33.181-34.535a13.934,13.934,0,0,1,0-19.118,12.654,12.654,0,0,1,9.183-3.96,12.65,12.65,0,0,1,9.184,3.96l33.179,34.535a13.926,13.926,0,0,1,0,19.118A12.645,12.645,0,0,1-3664.126,3017.3Z" fill="#0f0f0f"/>
              </g>
              <g id="Group_1140" data-name="Group 1140">
                <path id="Path_2146" data-name="Path 2146" d="M-3697.3,2959.055a9.562,9.562,0,0,1,6.92,2.984l33.18,34.536a10.486,10.486,0,0,1,0,14.408,9.566,9.566,0,0,1-6.922,2.984,9.566,9.566,0,0,1-6.921-2.984l-33.179-34.535a10.485,10.485,0,0,1,0-14.409,9.57,9.57,0,0,1,6.922-2.984m0-6.661a15.768,15.768,0,0,0-11.446,4.935,17.091,17.091,0,0,0-4.742,11.914,17.088,17.088,0,0,0,4.742,11.914l33.178,34.536a15.772,15.772,0,0,0,11.446,4.935,15.769,15.769,0,0,0,11.446-4.935,17.36,17.36,0,0,0,0-23.828l-33.18-34.536a15.768,15.768,0,0,0-11.445-4.935Z" fill="#212121"/>
              </g>
            </g>
            <g id="Group_1144" data-name="Group 1144">
              <g id="Group_1142" data-name="Group 1142">
                <path id="Path_2147" data-name="Path 2147" d="M-3690.088,3029.23a12.656,12.656,0,0,1-9.183-3.959l-23.329-24.283a13.717,13.717,0,0,1-3.8-9.558,13.718,13.718,0,0,1,3.8-9.56,12.654,12.654,0,0,1,9.185-3.96,12.653,12.653,0,0,1,9.183,3.96l23.328,24.282a13.715,13.715,0,0,1,3.8,9.559,13.715,13.715,0,0,1-3.8,9.56A12.653,12.653,0,0,1-3690.088,3029.23Z" fill="#0f0f0f"/>
              </g>
              <g id="Group_1143" data-name="Group 1143">
                <path id="Path_2148" data-name="Path 2148" d="M-3713.416,2981.241a9.567,9.567,0,0,1,6.921,2.984l23.329,24.283a10.486,10.486,0,0,1,0,14.408h0a9.562,9.562,0,0,1-6.921,2.984,9.566,9.566,0,0,1-6.922-2.984l-23.329-24.283a10.486,10.486,0,0,1,0-14.408,9.57,9.57,0,0,1,6.922-2.984m0-6.661a15.769,15.769,0,0,0-11.447,4.936,17.088,17.088,0,0,0-4.74,11.913,17.088,17.088,0,0,0,4.741,11.914l23.328,24.283a15.772,15.772,0,0,0,11.447,4.935,15.77,15.77,0,0,0,11.446-4.935,17.09,17.09,0,0,0,4.74-11.914,17.086,17.086,0,0,0-4.741-11.914l-23.328-24.283a15.772,15.772,0,0,0-11.446-4.935Z" fill="#212121"/>
              </g>
            </g>
            <g id="Group_1147" data-name="Group 1147">
              <g id="Group_1145" data-name="Group 1145">
                <path id="Path_2149" data-name="Path 2149" d="M-3628.716,2976.427a12.654,12.654,0,0,1-9.185-3.96l-30.31-31.549,18.366-19.118,30.312,31.551a13.712,13.712,0,0,1,3.8,9.558,13.71,13.71,0,0,1-3.8,9.558A12.654,12.654,0,0,1-3628.716,2976.427Z" fill="#0f0f0f"/>
              </g>
              <g id="Group_1146" data-name="Group 1146">
                <path id="Path_2150" data-name="Path 2150" d="M-3649.845,2926.509l28.049,29.2a10.484,10.484,0,0,1,0,14.408h0a9.562,9.562,0,0,1-6.921,2.984,9.562,9.562,0,0,1-6.921-2.984l-28.05-29.2,13.843-14.409m0-9.419-4.525,4.71-13.843,14.408-4.524,4.71,4.524,4.71,28.05,29.2a15.772,15.772,0,0,0,11.446,4.935,15.771,15.771,0,0,0,11.446-4.935,17.091,17.091,0,0,0,4.74-11.914,17.087,17.087,0,0,0-4.741-11.914l-28.048-29.2-4.525-4.71Z" fill="#212121"/>
              </g>
            </g>
            <g id="Group_1150" data-name="Group 1150">
              <g id="Group_1148" data-name="Group 1148">
                <path id="Path_2151" data-name="Path 2151" d="M-3643.385,3000.241a12.654,12.654,0,0,1-9.183-3.96l-35.567-37.021a13.715,13.715,0,0,1-3.8-9.558,13.715,13.715,0,0,1,3.8-9.56,12.65,12.65,0,0,1,9.182-3.96,12.654,12.654,0,0,1,9.185,3.96l35.566,37.021a13.718,13.718,0,0,1,3.8,9.56,13.717,13.717,0,0,1-3.8,9.558A12.651,12.651,0,0,1-3643.385,3000.241Z" fill="#0f0f0f"/>
              </g>
              <g id="Group_1149" data-name="Group 1149">
                <path id="Path_2152" data-name="Path 2152" d="M-3678.952,2939.513a9.566,9.566,0,0,1,6.922,2.984l35.566,37.021a10.484,10.484,0,0,1,0,14.408,9.565,9.565,0,0,1-6.921,2.984,9.569,9.569,0,0,1-6.922-2.984l-35.566-37.021a10.486,10.486,0,0,1,0-14.408h0a9.563,9.563,0,0,1,6.921-2.984m0-6.661a15.771,15.771,0,0,0-11.446,4.935,17.361,17.361,0,0,0,0,23.828l35.566,37.021a15.772,15.772,0,0,0,11.447,4.935,15.771,15.771,0,0,0,11.446-4.935,17.092,17.092,0,0,0,4.741-11.914,17.087,17.087,0,0,0-4.741-11.914l-35.566-37.021a15.772,15.772,0,0,0-11.447-4.935Z" fill="#212121"/>
              </g>
            </g>
          </g>
          <g id="Group_1152" data-name="Group 1152">
            <path id="Path_2153" data-name="Path 2153" d="M-3634.593,2903.265l-11.493-12.37-31.074,36.723a9.1,9.1,0,0,0,1.068,12.828l1.231,1.041a9.1,9.1,0,0,0,12.828-1.069l26.882-24.312A9.029,9.029,0,0,0-3634.593,2903.265Z" fill="#0f0f0f"/>
          </g>
          <g id="Group_1153" data-name="Group 1153">
            <path id="Path_2154" data-name="Path 2154" d="M-3646.086,2890.9l11.493,12.37a9.027,9.027,0,0,1-.559,12.841l-26.881,24.312a9.083,9.083,0,0,1-6.953,3.223,9.066,9.066,0,0,1-5.875-2.154l-1.231-1.041a9.1,9.1,0,0,1-1.068-12.828l31.074-36.723m-4.543-3.844-31.074,36.723a15.071,15.071,0,0,0,1.767,21.215l1.231,1.041a15.065,15.065,0,0,0,9.719,3.562,15.025,15.025,0,0,0,11.2-4.994l26.624-24.078a14.874,14.874,0,0,0,4.918-10.459,14.875,14.875,0,0,0-3.992-10.847l-11.493-12.37-4.567-4.916h0l-4.335,5.123" fill="#212121"/>
          </g>
          <g id="Group_1154" data-name="Group 1154">
            <line id="Line_195" data-name="Line 195" x1="64.275" y2="74.986" transform="translate(-3736.135 2916.797)" fill="#1e00ff"/>
            <rect id="Rectangle_569" data-name="Rectangle 569" width="98.762" height="5.951" transform="matrix(0.651, -0.759, 0.759, 0.651, -3738.395, 2989.845)" fill="#212121"/>
          </g>
          <g id="Group_1155" data-name="Group 1155">
            <path id="Path_2155" data-name="Path 2155" d="M-3651.183,2885.588l5.62,5.87-6.087,19.844-19.657-19.747Z" fill="#0f0f0f"/>
          </g>
          <g id="Group_1156" data-name="Group 1156">
            <path id="Path_2156" data-name="Path 2156" d="M-3693.309,2934.878c-11.089,0-21.853-7.353-27.282-12.783l4.207-4.208-2.1,2.1,2.1-2.106c.187.186,18.925,18.546,33.42,7.547l3.6,4.742A22.563,22.563,0,0,1-3693.309,2934.878Z" fill="#212121"/>
          </g>
          <g id="Group_1157" data-name="Group 1157">
            <line id="Line_196" data-name="Line 196" x1="58.581" y2="65.019" transform="translate(-3782.921 2852.249)" fill="#1e00ff"/>
            <rect id="Rectangle_570" data-name="Rectangle 570" width="87.517" height="5.952" transform="translate(-3785.129 2915.28) rotate(-47.988)" fill="#212121"/>
          </g>
        </g>
      </g>
    </g>
  </g>
</svg>
