<svg xmlns="http://www.w3.org/2000/svg" width="100%" height="100%" viewBox="0 0 155 155">
  <g id="Group_924" data-name="Group 924" transform="translate(-728 -1953.957)">
    <circle id="Ellipse_118" data-name="Ellipse 118" cx="77.5" cy="77.5" r="77.5" transform="translate(728 1953.957)" fill="#1d1d1d"/>
    <g id="Group_695" data-name="Group 695" transform="translate(749.011 1975.359)">
      <path id="Path_1799" data-name="Path 1799" d="M54.446,27.61A26.386,26.386,0,1,0,80.832,54,26.386,26.386,0,0,0,54.446,27.61Zm0,49.83A23.42,23.42,0,1,1,77.819,53.972V54a23.455,23.455,0,0,1-23.373,23.42Z" transform="translate(2.977 2.899)" fill="#fff"/>
      <path id="Path_1800" data-name="Path 1800" d="M101.238,53.514,92.79,49.171a35.936,35.936,0,0,0-4.876-11.746L90.833,28.4a1.483,1.483,0,0,0-.368-1.495L87.2,23.639a1.483,1.483,0,0,0-1.495-.368l-9.076,2.954A35.465,35.465,0,0,0,65.1,21.48l-4.413-8.613a1.473,1.473,0,0,0-1.317-.807h-4.6a1.473,1.473,0,0,0-1.317.807l-4.52,8.791A35.791,35.791,0,0,0,37.859,26.4L28.368,23.26a1.5,1.5,0,0,0-1.519.356l-3.263,3.263A1.5,1.5,0,0,0,23.23,28.4l3.263,9.693a36.009,36.009,0,0,0-4.378,10.761l-9.207,4.6a1.482,1.482,0,0,0-.819,1.329v4.6a1.482,1.482,0,0,0,.819,1.329l9.313,4.663a35.8,35.8,0,0,0,4.354,10.464l-3.3,9.895a1.5,1.5,0,0,0,.356,1.519L26.9,90.518a1.5,1.5,0,0,0,1.519.356L38.239,87.6a35.8,35.8,0,0,0,10.618,4.485l4.58,9.159a1.482,1.482,0,0,0,1.329.819h4.6a1.482,1.482,0,0,0,1.329-.819l4.485-8.969a35.854,35.854,0,0,0,11.069-4.449l9.491,3.061a1.483,1.483,0,0,0,1.495-.368L90.5,87.255a1.483,1.483,0,0,0,.368-1.495l-2.954-9.278A35.786,35.786,0,0,0,92.66,65.069l8.542-4.378a1.473,1.473,0,0,0,.807-1.317v-4.6A1.471,1.471,0,0,0,101.238,53.514Zm-2.159,5.019-8.3,4.283A1.422,1.422,0,0,0,90,63.824a32.954,32.954,0,0,1-4.936,11.663,1.481,1.481,0,0,0-.178,1.281l2.919,9.076-2.029,1.922-9.266-2.99a1.507,1.507,0,0,0-1.258.166A32.841,32.841,0,0,1,63.889,89.5a1.472,1.472,0,0,0-1.032.795l-4.4,8.791H55.679l-4.485-8.969a1.508,1.508,0,0,0-1.008-.783,33.012,33.012,0,0,1-10.915-4.615,1.484,1.484,0,0,0-1.281-.166l-9.622,3.215L26.4,85.8l3.215-9.741a1.456,1.456,0,0,0-.166-1.186,32.927,32.927,0,0,1-4.485-10.8,1.519,1.519,0,0,0-.783-1.02L15.056,58.5V55.685l9.029-4.544a1.461,1.461,0,0,0,.783-1.02,33,33,0,0,1,4.508-11.069,1.5,1.5,0,0,0,.154-1.269L26.375,28.29l1.969-1.969L37.6,29.405a1.5,1.5,0,0,0,1.305-.166,32.984,32.984,0,0,1,11.354-4.864,1.5,1.5,0,0,0,1-.771L55.667,15h2.8l4.319,8.435a1.533,1.533,0,0,0,1.044.783,32.866,32.866,0,0,1,11.781,4.746,1.505,1.505,0,0,0,1.269.178l8.9-2.871,1.981,1.981-2.847,8.827a1.515,1.515,0,0,0,.178,1.281A32.785,32.785,0,0,1,90.026,50.3a1.53,1.53,0,0,0,.783,1.032l8.3,4.236Z" transform="translate(0 0)" fill="#fff"/>
      <path id="Path_1801" data-name="Path 1801" d="M61.389,47.341l-8.3,1.186,4.746-11.52a1.483,1.483,0,0,0-2.5-1.507L40.84,53.629A1.483,1.483,0,0,0,42.287,56l6.988-1.447L43.758,67.035a1.483,1.483,0,0,0,.558,1.851,1.518,1.518,0,0,0,.807.237,1.494,1.494,0,0,0,1.115-.51L62.706,49.785a1.468,1.468,0,0,0-1.317-2.444Z" transform="translate(5.3 4.274)" fill="#fff"/>
    </g>
  </g>
</svg>
