<svg xmlns="http://www.w3.org/2000/svg" width="100%" height="100%" viewBox="0 0 155 155">
  <g id="Group_926" data-name="Group 926" transform="translate(-728 -1529.957)">
    <circle id="Ellipse_120" data-name="Ellipse 120" cx="77.5" cy="77.5" r="77.5" transform="translate(728 1529.957)" fill="#f06d28"/>
    <g id="Group_689" data-name="Group 689" transform="translate(610.697 1560.264)">
      <path id="Path_1769" data-name="Path 1769" d="M180.647,100.458h-9.562a1.366,1.366,0,0,1-1.367-1.291l-.326-6a23.615,23.615,0,0,1-5.041-2.1l-4.483,4.02a1.367,1.367,0,0,1-1.877-.052l-6.758-6.758a1.367,1.367,0,0,1-.052-1.877l4.021-4.484a23.567,23.567,0,0,1-2.1-5.041l-6-.325a1.366,1.366,0,0,1-1.291-1.366V65.622a1.366,1.366,0,0,1,1.291-1.366l6-.327a23.542,23.542,0,0,1,2.1-5.04l-4.021-4.483a1.366,1.366,0,0,1,.052-1.877l6.757-6.758a1.367,1.367,0,0,1,1.877-.052l4.485,4.02a23.588,23.588,0,0,1,5.04-2.1l.327-6a1.366,1.366,0,0,1,1.366-1.291h9.563a1.366,1.366,0,0,1,1.366,1.291l.327,6a23.588,23.588,0,0,1,5.04,2.1l4.481-4.02a1.367,1.367,0,0,1,1.879.052l6.757,6.758a1.366,1.366,0,0,1,.051,1.877l-4.019,4.484a23.568,23.568,0,0,1,2.1,5.041l6,.326a1.366,1.366,0,0,1,1.29,1.367v9.562a1.366,1.366,0,0,1-1.29,1.367l-6,.326a23.568,23.568,0,0,1-2.1,5.041l4.019,4.485a1.365,1.365,0,0,1-.051,1.876l-6.757,6.758a1.365,1.365,0,0,1-1.879.052l-4.483-4.02a23.588,23.588,0,0,1-5.04,2.1l-.325,6A1.366,1.366,0,0,1,180.647,100.458Zm-8.269-2.732h6.976l.311-5.7a1.365,1.365,0,0,1,1.047-1.254,20.86,20.86,0,0,0,6.119-2.545,1.365,1.365,0,0,1,1.628.146l4.265,3.825,4.928-4.929L193.827,83a1.365,1.365,0,0,1-.146-1.628,20.833,20.833,0,0,0,2.543-6.119,1.367,1.367,0,0,1,1.255-1.047l5.708-.313V66.916l-5.706-.311a1.366,1.366,0,0,1-1.254-1.048,20.854,20.854,0,0,0-2.544-6.118,1.367,1.367,0,0,1,.146-1.629l3.825-4.265-4.927-4.928-4.265,3.825a1.365,1.365,0,0,1-1.628.146,20.861,20.861,0,0,0-6.119-2.545,1.366,1.366,0,0,1-1.047-1.254l-.314-5.707h-6.976l-.311,5.7a1.365,1.365,0,0,1-1.047,1.254,20.861,20.861,0,0,0-6.119,2.545,1.365,1.365,0,0,1-1.628-.146l-4.265-3.825-4.929,4.93L157.9,57.81a1.367,1.367,0,0,1,.146,1.629,20.88,20.88,0,0,0-2.545,6.118,1.366,1.366,0,0,1-1.254,1.048l-5.707.311v6.975l5.706.311a1.367,1.367,0,0,1,1.254,1.048,20.856,20.856,0,0,0,2.545,6.118A1.367,1.367,0,0,1,157.9,83l-3.825,4.265,4.928,4.928,4.265-3.825a1.367,1.367,0,0,1,1.629-.146,20.856,20.856,0,0,0,6.118,2.545,1.367,1.367,0,0,1,1.048,1.254Z" transform="translate(0 -3.928)" fill="#fff"/>
      <path id="Path_1770" data-name="Path 1770" d="M177.83,88.761a16.393,16.393,0,1,1,16.393-16.393A16.393,16.393,0,0,1,177.83,88.761Zm0-30.054a13.661,13.661,0,1,0,13.661,13.661A13.661,13.661,0,0,0,177.83,58.707Z" transform="translate(-1.964 -5.893)" fill="#fff"/>
      <path id="Path_1771" data-name="Path 1771" d="M235.8,28.225H178.428a1.367,1.367,0,0,1-1.367-1.367V10.466A1.367,1.367,0,0,1,178.428,9.1H235.8a1.366,1.366,0,0,1,1.366,1.366V26.859A1.366,1.366,0,0,1,235.8,28.225Zm-56.01-2.732h54.643V11.832H179.794Z" transform="translate(-3.928)" fill="#fff"/>
      <path id="Path_1772" data-name="Path 1772" d="M235.8,53.225H207.116V50.493h27.322V36.832H179.794v4.1h-2.732V35.466a1.367,1.367,0,0,1,1.367-1.366H235.8a1.366,1.366,0,0,1,1.366,1.366V51.859A1.366,1.366,0,0,1,235.8,53.225Z" transform="translate(-3.928 -3.143)" fill="#fff"/>
      <path id="Path_1773" data-name="Path 1773" d="M239.929,78.225H216.7V75.493h21.857V61.832H209.875V59.1h30.054a1.366,1.366,0,0,1,1.366,1.366V76.859A1.366,1.366,0,0,1,239.929,78.225Z" transform="translate(-8.053 -6.285)" fill="#fff"/>
      <path id="Path_1774" data-name="Path 1774" d="M220.2,23.546H184.679a1.367,1.367,0,0,1-1.367-1.367V16.716a1.367,1.367,0,0,1,1.367-1.366H220.2a1.366,1.366,0,0,1,1.366,1.366V22.18A1.366,1.366,0,0,1,220.2,23.546Zm-34.152-2.732H218.83V18.082H186.044Z" transform="translate(-4.714 -0.786)" fill="#fff"/>
      <path id="Path_1775" data-name="Path 1775" d="M234.286,23.546a4.1,4.1,0,1,1,4.1-4.1A4.1,4.1,0,0,1,234.286,23.546Zm0-5.464a1.366,1.366,0,1,0,1.366,1.366A1.367,1.367,0,0,0,234.286,18.082Z" transform="translate(-10.607 -0.786)" fill="#fff"/>
      <rect id="Rectangle_399" data-name="Rectangle 399" width="2.732" height="5.464" transform="translate(177.232 26.859)" fill="#fff"/>
      <rect id="Rectangle_400" data-name="Rectangle 400" width="2.732" height="5.464" transform="translate(226.411 26.859)" fill="#fff"/>
      <rect id="Rectangle_401" data-name="Rectangle 401" width="2.732" height="5.464" transform="translate(226.411 48.716)" fill="#fff"/>
      <rect id="Rectangle_402" data-name="Rectangle 402" width="2.732" height="8.196" transform="translate(225.045 62.377)" fill="#fff"/>
      <rect id="Rectangle_403" data-name="Rectangle 403" width="2.732" height="8.196" transform="translate(219.581 62.377)" fill="#fff"/>
      <rect id="Rectangle_404" data-name="Rectangle 404" width="2.732" height="8.196" transform="translate(214.117 62.377)" fill="#fff"/>
      <rect id="Rectangle_405" data-name="Rectangle 405" width="2.732" height="8.196" transform="translate(208.652 62.377)" fill="#fff"/>
      <rect id="Rectangle_406" data-name="Rectangle 406" width="23.223" height="2.732" transform="translate(208.652 61.011)" fill="#fff"/>
      <rect id="Rectangle_407" data-name="Rectangle 407" width="15.027" height="2.732" transform="translate(212.75 36.422)" fill="#fff"/>
      <rect id="Rectangle_408" data-name="Rectangle 408" width="15.027" height="2.732" transform="translate(212.75 41.886)" fill="#fff"/>
      <rect id="Rectangle_409" data-name="Rectangle 409" width="2.732" height="2.732" transform="translate(207.286 36.422)" fill="#fff"/>
      <rect id="Rectangle_410" data-name="Rectangle 410" width="19.125" height="2.732" transform="translate(185.429 36.422)" fill="#fff"/>
      <rect id="Rectangle_411" data-name="Rectangle 411" width="2.732" height="2.732" transform="translate(207.286 41.886)" fill="#fff"/>
      <rect id="Rectangle_412" data-name="Rectangle 412" width="2.732" height="2.732" transform="translate(201.822 41.886)" fill="#fff"/>
      <path id="Path_1776" data-name="Path 1776" d="M178.616,84.082a10.929,10.929,0,1,1,10.929-10.929A10.929,10.929,0,0,1,178.616,84.082Zm0-19.125a8.2,8.2,0,1,0,8.2,8.2A8.2,8.2,0,0,0,178.616,64.957Z" transform="translate(-2.75 -6.678)" fill="#fff"/>
    </g>
  </g>
</svg>
