<svg xmlns="http://www.w3.org/2000/svg" width="100%" height="100%" viewBox="0 0 155 155">
  <g id="Group_927" data-name="Group 927" transform="translate(-1315.003 -1529.957)">
    <circle id="Ellipse_123" data-name="Ellipse 123" cx="77.5" cy="77.5" r="77.5" transform="translate(1315.003 1529.957)" fill="#fff"/>
    <path id="Path_1768" data-name="Path 1768" d="M63.657,96.412H16.6a2.745,2.745,0,0,1-2.794-2.683V24.542A2.745,2.745,0,0,1,16.6,21.86H63.545a2.745,2.745,0,0,1,2.794,2.683V48.685h2.906V24.542a5.63,5.63,0,0,0-5.7-5.589H44.655A5.491,5.491,0,0,0,45.773,15.6a5.7,5.7,0,1,0-11.4,0,6.024,6.024,0,0,0,1.118,3.353H16.6a5.7,5.7,0,0,0-5.7,5.589V93.618a5.63,5.63,0,0,0,5.7,5.589H63.545c3.018,0,6.371-2.347,6.371-5.589H67.01C67.122,94.959,65.334,96.412,63.657,96.412ZM40.185,12.918a2.794,2.794,0,1,1-2.794,2.794A2.767,2.767,0,0,1,40.185,12.918ZM27,35.608H21.183V32.7H27Zm0,11.624H21.183V44.326H27Zm0,11.624H21.183V55.951H27Zm0,11.624H21.183V67.575H27ZM21.183,79.2H27v2.906H21.183ZM58.851,35.608H32.808V32.7H58.851Zm0,11.624H32.808V44.326H58.851ZM56.28,58.857H32.808V55.951H56.28ZM50.356,70.481H32.808V67.575H50.356ZM32.808,79.2H50.132v2.906H32.808ZM79.417,52.933a18.89,18.89,0,1,0,18.89,18.89A18.938,18.938,0,0,0,79.417,52.933Zm0,34.873A15.984,15.984,0,1,1,95.4,71.822,15.98,15.98,0,0,1,79.417,87.806ZM85.9,64.892l2.347,1.788L78.3,79.535,70.587,72.94l1.9-2.235,5.365,4.583Z" transform="translate(1347.789 1548.541)"/>
  </g>
</svg>
