<svg xmlns="http://www.w3.org/2000/svg" width="87.118" height="87.119" viewBox="0 0 87.118 87.119">
  <g id="Group_986" data-name="Group 986" transform="translate(-222.441 -732.599)">
    <ellipse id="Ellipse_116" data-name="Ellipse 116" cx="43.559" cy="43.559" rx="43.559" ry="43.559" transform="translate(222.441 732.599)" fill="#f06d28"/>
    <g id="Group_985" data-name="Group 985" transform="translate(2447.977 1880.413)">
      <path id="Rectangle_545" data-name="Rectangle 545" d="M1.217,0H9.3a1.217,1.217,0,0,1,1.217,1.217V5.851a0,0,0,0,1,0,0H0a0,0,0,0,1,0,0V1.217A1.217,1.217,0,0,1,1.217,0Z" transform="translate(-2195.83 -1129.402)" fill="none" stroke="#fff" stroke-miterlimit="10" stroke-width="1.8"/>
      <rect id="Rectangle_546" data-name="Rectangle 546" width="5.487" height="24.069" rx="2.743" transform="translate(-2173.262 -1111.292)" fill="none" stroke="#fff" stroke-miterlimit="10" stroke-width="1.8"/>
      <path id="Path_2043" data-name="Path 2043" d="M-2185.313-1122.552a1.9,1.9,0,0,0,1.352,1.817l19.276,5.781a1.713,1.713,0,0,1,1.2,1.635v30.834a1.714,1.714,0,0,1-1.714,1.713h-31.064a1.713,1.713,0,0,1-1.713-1.713v-37a2.822,2.822,0,0,1,.655-1.808l1.492-1.789h10.516Z" transform="translate(0 -0.467)" fill="none" stroke="#fff" stroke-miterlimit="10" stroke-width="1.8"/>
      <path id="Path_2044" data-name="Path 2044" d="M-2189.634-1092.792a4.505,4.505,0,0,0,3.8,6.243c.092.005.184.008.277.008s.185,0,.277-.008a4.5,4.5,0,0,0,3.8-6.242l-3.826-6.867a.269.269,0,0,0-.5,0Z" transform="translate(-0.591 -2.187)" fill="none" stroke="#fff" stroke-miterlimit="10" stroke-width="1.8"/>
      <line id="Line_181" data-name="Line 181" y2="2.926" transform="translate(-2192.737 -1129.402)" fill="none" stroke="#fff" stroke-miterlimit="10" stroke-width="1.8"/>
      <line id="Line_182" data-name="Line 182" y2="2.926" transform="translate(-2188.436 -1129.402)" fill="none" stroke="#fff" stroke-miterlimit="10" stroke-width="1.8"/>
      <path id="Path_2045" data-name="Path 2045" d="M-2183.56-1091.257a2.491,2.491,0,0,1-2.417,2.56" transform="translate(-0.887 -2.821)" fill="none" stroke="#fff" stroke-miterlimit="10" stroke-width="1.8"/>
      <path id="Path_2046" data-name="Path 2046" d="M-2193.268-1108.545v-7.711a2.635,2.635,0,0,1,.763-1.854l.684-.687" transform="translate(-0.348 -0.784)" fill="none" stroke="#fff" stroke-miterlimit="10" stroke-width="1.8"/>
      <line id="Line_183" data-name="Line 183" y2="1.593" transform="translate(-2193.616 -1108.274)" fill="none" stroke="#fff" stroke-miterlimit="10" stroke-width="1.8"/>
    </g>
  </g>
</svg>
