<svg xmlns="http://www.w3.org/2000/svg" width="774.064" height="216.81" viewBox="0 0 774.064 216.81">
  <g id="Group_992" data-name="Group 992" transform="translate(-177 -921.225)">
    <g id="Group_919" data-name="Group 919" transform="translate(-10)">
      <rect id="Rectangle_423" data-name="Rectangle 423" width="774.064" height="216.81" transform="translate(187 921.225)" fill="#231f20"/>
      <rect id="Rectangle_485" data-name="Rectangle 485" width="773" height="215" transform="translate(187 922)" fill="rgb(255, 99, 0)"/>
      <g id="Rectangle_487" data-name="Rectangle 487" transform="translate(195 929)" fill="none" stroke="#fff" stroke-width="3">
        <rect width="756" height="200" stroke="none"/>
        <rect x="1.5" y="1.5" width="753" height="197" fill="none"/>
      </g>
      <g id="Group_815" data-name="Group 815" transform="translate(233.926 948.547)">
        <text id="Senior_citizens_65" data-name="Senior citizens $65" transform="translate(0 35)" fill="#fff" font-size="36" font-family="sans-serif,arial" font-weight="700"><tspan x="0" y="0">SENIOR CITIZENS $65</tspan></text>
        <text id="full_synthetic_oil_replacement" data-name="full synthetic oil 
replacement" transform="translate(0 73.297)" fill="#fff" font-size="36" font-family="sans-serif,aria" font-weight="700"><tspan x="0" y="0">FULL SYNTHETIC OIL </tspan><tspan x="0" y="40">REPLACEMENT</tspan></text>
      </g>
      <path id="Path_2006" data-name="Path 2006" d="M0,0H55.71" transform="translate(236.543 1086.574)" fill="none" stroke="#fff" stroke-width="5"/>
      <path id="Path_2002" data-name="Path 2002" d="M-2370.734-644.068v159.609" transform="translate(3091.587 1592.615)" fill="none" stroke="#fff" stroke-width="5" stroke-dasharray="10"/>
    </g>
    <g id="Group_985" data-name="Group 985" transform="translate(659.168 945.741)">
      <path id="Rectangle_545" data-name="Rectangle 545" d="M123.2,18.412h21.325a3.211,3.211,0,0,1,3.211,3.211h0V33.848H119.989V21.623a3.211,3.211,0,0,1,3.211-3.211Z" transform="translate(3.516 0)" fill="none" stroke="#fff" stroke-miterlimit="10" stroke-width="3.5"/>
      <rect id="Rectangle_546" data-name="Rectangle 546" width="14.476" height="63.499" rx="2.743" transform="translate(183.044 66.19)" fill="none" stroke="#fff" stroke-miterlimit="10" stroke-width="3.5"/>
      <path id="Path_2043" data-name="Path 2043" d="M151.251,25.663a5.014,5.014,0,0,0,3.567,4.794l50.854,15.252a4.52,4.52,0,0,1,3.166,4.313v81.347a4.522,4.522,0,0,1-4.522,4.519H122.362a4.519,4.519,0,0,1-4.519-4.519V33.755a7.446,7.446,0,0,1,1.728-4.77l3.936-4.72h27.743Z" transform="translate(0 9.589)" fill="none" stroke="#fff" stroke-miterlimit="10" stroke-width="3.5"/>
      <path id="Path_2044" data-name="Path 2044" d="M126.176,64.361A11.887,11.887,0,0,0,136.2,80.831c.243.013.485.021.731.021s.488,0,.731-.021a11.867,11.867,0,0,0,10.025-16.468L137.6,46.247a.709.709,0,0,0-1.319,0Z" transform="translate(12.116 44.866)" fill="none" stroke="#fff" stroke-miterlimit="10" stroke-width="3.5"/>
      <line id="Line_181" data-name="Line 181" y2="7.719" transform="translate(131.665 18.412)" fill="none" stroke="#fff" stroke-miterlimit="10" stroke-width="3.5"/>
      <line id="Line_182" data-name="Line 182" y2="7.719" transform="translate(143.012 18.412)" fill="none" stroke="#fff" stroke-miterlimit="10" stroke-width="3.5"/>
      <path id="Path_2045" data-name="Path 2045" d="M135.332,53.736a6.571,6.571,0,0,1-6.377,6.754" transform="translate(18.204 57.868)" fill="none" stroke="#fff" stroke-miterlimit="10" stroke-width="3.5"/>
      <path id="Path_2046" data-name="Path 2046" d="M122.2,55.28V34.937a6.947,6.947,0,0,1,2.013-4.891l1.8-1.812" transform="translate(7.143 16.089)" fill="none" stroke="#fff" stroke-miterlimit="10" stroke-width="3.5"/>
      <line id="Line_183" data-name="Line 183" y2="4.203" transform="translate(129.346 74.152)" fill="none" stroke="#fff" stroke-miterlimit="10" stroke-width="3.5"/>
    </g>
  </g>
</svg>
