<svg xmlns="http://www.w3.org/2000/svg" width="100%" height="100%" viewBox="0 0 155 155">
  <g id="Group_922" data-name="Group 922" transform="translate(-187 -1741.957)">
    <circle id="Ellipse_116" data-name="Ellipse 116" cx="77.5" cy="77.5" r="77.5" transform="translate(187 1741.957)" fill="#f06d28"/>
    <g id="Group_691" data-name="Group 691" transform="translate(231.385 1772.826)">
      <path id="Path_1783" data-name="Path 1783" d="M64.163,31.886a2.806,2.806,0,0,0,.644-1.649c-.1-1.683-1.44-2.542-3.092-3.333-3.545-1.6-10.007-2.795-18.006-3.381A12.739,12.739,0,0,0,41.3,8.891L32.4,0l-.761.761-8.118,8.11a12.7,12.7,0,0,0-2.414,14.655,98.228,98.228,0,0,0-11.061,1.38,32.186,32.186,0,0,0-6.954,2c-1.653.79-3,1.65-3.094,3.332a2.783,2.783,0,0,0,.6,1.6c.008.01.01.023.018.032L26.064,61.353V79.417l.451.323A11.2,11.2,0,0,0,32.558,81.6h.012a9.818,9.818,0,0,0,5.685-1.849l.462-.323V61.37ZM39.7,25.448a10.328,10.328,0,0,1-14.555,0,13.661,13.661,0,0,1-1.652-2.079A10.535,10.535,0,0,1,25.05,10.4l7.356-7.347,7.367,7.364a10.584,10.584,0,0,1,1.561,12.951A15.614,15.614,0,0,1,39.7,25.448ZM2.454,29.8c1.014-1.032,4.874-2.351,10.194-3.163,2.852-.455,6.157-.809,9.755-1.044a12.847,12.847,0,0,0,1.12,1.3,12.476,12.476,0,0,0,18.9-1.293,98.965,98.965,0,0,1,11.927,1.426,30.161,30.161,0,0,1,6.468,1.842,5.861,5.861,0,0,1,1.536.935c.292.282.295.417.295.432a.446.446,0,0,1-.108.219l0,0-.119.138c-.023.025-.038.044-.067.071-1.014,1.034-4.877,2.353-10.193,3.165A130.341,130.341,0,0,1,32.4,35.2a121.925,121.925,0,0,1-21.945-1.75,30.377,30.377,0,0,1-6.47-1.84,5.8,5.8,0,0,1-1.534-.938c-.29-.282-.3-.414-.3-.432S2.165,30.086,2.454,29.8Zm34.1,48.477a7.5,7.5,0,0,1-4,1.155,8.856,8.856,0,0,1-3.448-.739c-.36-.155-.661-.31-.885-.435V60.95h-.015a1.062,1.062,0,0,0-.251-.706L5.778,34.54c5.791,1.733,15.492,2.805,26.626,2.818a124.037,124.037,0,0,0,22.354-1.788c1.591-.308,3-.649,4.251-1.022L36.819,60.263a1.073,1.073,0,0,0-.251.706h-.011Z" fill="#fff" stroke="#fff" stroke-width="0.6"/>
      <path id="Path_1784" data-name="Path 1784" d="M30.445,76.692l-.762.76L26.27,80.861a5.928,5.928,0,1,0,8.359.01ZM33.1,87.8a3.789,3.789,0,0,1-5.3-5.413l2.65-2.646L33.1,82.4a3.828,3.828,0,0,1,0,5.4Z" transform="translate(1.957 6.122)" fill="#fff" stroke="#fff" stroke-width="0.6"/>
    </g>
  </g>
</svg>
