<svg id="star" width="16" height="15" viewBox="0 0 16 15" fill="transparent" xmlns="http://www.w3.org/2000/svg">
<path opacity="1" d="M7.28671 1.19529C7.51122 0.504306 8.48878 0.504305 8.71329 1.19529L9.85224 4.70061C9.95265 5.00963 10.2406 5.21885 10.5655 5.21885H14.2512C14.9778 5.21885 15.2799 6.14856 14.6921 6.57561L11.7103 8.74202C11.4474 8.933 11.3374 9.27153 11.4378 9.58054L12.5768 13.0859C12.8013 13.7768 12.0104 14.3514 11.4226 13.9244L8.44084 11.758C8.17797 11.567 7.82203 11.567 7.55916 11.758L4.57736 13.9244C3.98957 14.3514 3.19871 13.7768 3.42322 13.0859L4.56217 9.58054C4.66258 9.27153 4.55259 8.933 4.28972 8.74202L1.30792 6.57561C0.720131 6.14856 1.02221 5.21885 1.74875 5.21885H5.43447C5.75939 5.21885 6.04735 5.00963 6.14776 4.70061L7.28671 1.19529Z" stroke="#414042"/>
</svg>
