<svg xmlns="http://www.w3.org/2000/svg" width="100%" height="100%" viewBox="0 0 155 155">
  <g id="Group_925" data-name="Group 925" transform="translate(-728 -1741.957)">
    <circle id="Ellipse_119" data-name="Ellipse 119" cx="77.5" cy="77.5" r="77.5" transform="translate(728 1741.957)" fill="#fff"/>
    <g id="Group_693" data-name="Group 693" transform="translate(444.735 1426.587)">
      <path id="Path_1788" data-name="Path 1788" d="M367.422,425.347a27.11,27.11,0,1,1,0-54.221" transform="translate(-4.653 -4.653)" fill="none" stroke="#000" stroke-miterlimit="10" stroke-width="2.5"/>
      <line id="Line_150" data-name="Line 150" y2="98.807" transform="translate(362.769 344.181)" fill="none" stroke="#000" stroke-miterlimit="10" stroke-width="2.5"/>
      <line id="Line_151" data-name="Line 151" x1="49.403" transform="translate(362.769 393.584)" fill="none" stroke="#000" stroke-miterlimit="10" stroke-width="2.5"/>
      <line id="Line_152" data-name="Line 152" x2="16.369" transform="translate(313.366 393.584)" fill="none" stroke="#000" stroke-miterlimit="10" stroke-width="2.5"/>
      <line id="Line_153" data-name="Line 153" x2="14.055" y2="8.39" transform="translate(320.179 367.595)" fill="none" stroke="#000" stroke-miterlimit="10" stroke-width="2.5"/>
      <line id="Line_154" data-name="Line 154" x2="8.31" y2="14.103" transform="translate(338.761 349.245)" fill="none" stroke="#000" stroke-miterlimit="10" stroke-width="2.5"/>
      <line id="Line_155" data-name="Line 155" y1="8.39" x2="14.055" transform="translate(320.179 411.121)" fill="none" stroke="#000" stroke-miterlimit="10" stroke-width="2.5"/>
      <line id="Line_156" data-name="Line 156" y1="14.103" x2="8.31" transform="translate(338.761 423.759)" fill="none" stroke="#000" stroke-miterlimit="10" stroke-width="2.5"/>
      <path id="Path_1789" data-name="Path 1789" d="M414,410.327l-8.129-8.129L414,394.069" transform="translate(-15.972 -8.614)" fill="none" stroke="#000" stroke-miterlimit="10" stroke-width="2.5"/>
      <path id="Path_1790" data-name="Path 1790" d="M428.55,410.327l-8.129-8.129,8.129-8.129" transform="translate(-18.485 -8.614)" fill="none" stroke="#000" stroke-miterlimit="10" stroke-width="2.5"/>
      <line id="Line_157" data-name="Line 157" x1="34.933" y2="34.933" transform="translate(362.769 358.651)" fill="none" stroke="#000" stroke-miterlimit="10" stroke-width="2.5"/>
      <path id="Path_1791" data-name="Path 1791" d="M407.762,378.31h-11.5v-11.5" transform="translate(-14.314 -3.908)" fill="none" stroke="#000" stroke-miterlimit="10" stroke-width="2.5"/>
      <path id="Path_1792" data-name="Path 1792" d="M418.051,368.02h-11.5v-11.5" transform="translate(-16.091 -2.131)" fill="none" stroke="#000" stroke-miterlimit="10" stroke-width="2.5"/>
      <line id="Line_158" data-name="Line 158" x1="34.933" y1="34.933" transform="translate(362.769 393.298)" fill="none" stroke="#000" stroke-miterlimit="10" stroke-width="2.5"/>
      <path id="Path_1793" data-name="Path 1793" d="M396.265,438.231v-11.5h11.5" transform="translate(-14.314 -14.254)" fill="none" stroke="#000" stroke-miterlimit="10" stroke-width="2.5"/>
      <path id="Path_1794" data-name="Path 1794" d="M406.555,448.521v-11.5h11.5" transform="translate(-16.091 -16.031)" fill="none" stroke="#000" stroke-miterlimit="10" stroke-width="2.5"/>
      <line id="Line_159" data-name="Line 159" x2="8.129" y2="8.129" transform="translate(362.769 420.711)" fill="none" stroke="#000" stroke-miterlimit="10" stroke-width="2.5"/>
      <line id="Line_160" data-name="Line 160" x2="8.129" y2="8.129" transform="translate(362.769 432.751)" fill="none" stroke="#000" stroke-miterlimit="10" stroke-width="2.5"/>
      <line id="Line_161" data-name="Line 161" x1="8.129" y2="8.129" transform="translate(362.769 358.327)" fill="none" stroke="#000" stroke-miterlimit="10" stroke-width="2.5"/>
      <line id="Line_162" data-name="Line 162" x1="8.129" y2="8.129" transform="translate(362.769 346.288)" fill="none" stroke="#000" stroke-miterlimit="10" stroke-width="2.5"/>
    </g>
  </g>
</svg>
