<svg xmlns="http://www.w3.org/2000/svg" width="100%" height="100%" viewBox="0 0 155 155">
  <g id="Group_929" data-name="Group 929" transform="translate(-1315.003 -1953.957)">
    <circle id="Ellipse_121" data-name="Ellipse 121" cx="77.5" cy="77.5" r="77.5" transform="translate(1315.003 1953.957)" fill="#f06d28"/>
    <g id="Group_694" data-name="Group 694" transform="translate(1340.448 1981.076)">
      <path id="Path_1795" data-name="Path 1795" d="M46.93,11.069A35.862,35.862,0,1,0,82.785,46.937,35.9,35.9,0,0,0,46.93,11.069Zm0,69.427a33.566,33.566,0,1,1,33.56-33.56A33.6,33.6,0,0,1,46.93,80.5Z" transform="translate(4.416 4.413)" fill="#fff"/>
      <path id="Path_1796" data-name="Path 1796" d="M44.657,15.352a29.306,29.306,0,1,0,29.3,29.313A29.339,29.339,0,0,0,44.657,15.352ZM67.5,30.32,56.351,36.743a13.932,13.932,0,0,0-10.4-6.14V17.712A26.979,26.979,0,0,1,67.5,30.32ZM32.821,44.668A11.838,11.838,0,1,1,46.966,56.274,11.846,11.846,0,0,1,32.821,44.668ZM43.656,17.7V30.571a13.945,13.945,0,0,0-10.522,5.94L21.97,30.062A26.975,26.975,0,0,1,43.656,17.7ZM20.8,32.036l11.156,6.447a13.983,13.983,0,0,0-1.431,6.185,13.59,13.59,0,0,0,1.313,5.9L20.67,57.017a26.833,26.833,0,0,1,.13-24.981Zm1.016,26.971,11.139-6.43a13.938,13.938,0,0,0,10.409,6.137V71.6A26.976,26.976,0,0,1,21.817,59.007ZM45.661,71.618V58.744a14.249,14.249,0,0,0,1.751-.217A14.075,14.075,0,0,0,56.188,52.8l11.161,6.448A26.976,26.976,0,0,1,45.661,71.618ZM68.518,57.278l-11.15-6.443a13.957,13.957,0,0,0,1.425-6.166,13.523,13.523,0,0,0-1.318-5.925l11.17-6.434a26.832,26.832,0,0,1-.127,24.969Z" transform="translate(6.687 6.686)" fill="#fff"/>
      <path id="Path_1797" data-name="Path 1797" d="M42.864,36.655a6.211,6.211,0,1,0-6.211,6.211A6.221,6.221,0,0,0,42.864,36.655ZM36.653,40.57a3.917,3.917,0,1,1,3.915-3.915A3.92,3.92,0,0,1,36.653,40.57Z" transform="translate(14.691 14.691)" fill="#fff"/>
      <path id="Path_1798" data-name="Path 1798" d="M99.927,51.393c0-.017.011-.032.011-.049s-.009-.034-.011-.052a48.583,48.583,0,0,0-97.165-.009c0,.021-.012.04-.012.061s.011.038.012.058a48.583,48.583,0,0,0,97.165-.009ZM89.273,68.947l4.1,1.768a46.434,46.434,0,0,1-8.516,12.518l-3.145-3.144a1.148,1.148,0,0,0-1.624,1.624l3.145,3.144a46.434,46.434,0,0,1-13.727,9.07l-1.656-4.163a1.148,1.148,0,0,0-2.134.848l1.656,4.166a46.024,46.024,0,0,1-14.881,2.836V93.144a1.148,1.148,0,1,0-2.3,0v4.469a45.99,45.99,0,0,1-16.118-3.324l1.771-4.108a1.148,1.148,0,0,0-2.108-.909l-1.769,4.1a46.407,46.407,0,0,1-12.517-8.52L22.6,81.713a1.148,1.148,0,0,0-1.624-1.624l-3.145,3.144A46.393,46.393,0,0,1,8.768,69.5l4.158-1.653a1.148,1.148,0,0,0-.848-2.134L7.916,67.37a46.043,46.043,0,0,1-2.83-14.878h4.46a1.148,1.148,0,1,0,0-2.3H5.086A46.048,46.048,0,0,1,8.408,34.081l4.1,1.768a1.148,1.148,0,0,0,.909-2.108l-4.1-1.766a46.493,46.493,0,0,1,8.516-12.518L20.977,22.6A1.148,1.148,0,0,0,22.6,20.977l-3.144-3.144a46.427,46.427,0,0,1,13.726-9.07l1.654,4.161a1.148,1.148,0,1,0,2.134-.848L35.316,7.911A46.023,46.023,0,0,1,50.2,5.075V9.546a1.148,1.148,0,1,0,2.3,0V5.075A45.965,45.965,0,0,1,68.61,8.4l-1.771,4.106a1.148,1.148,0,0,0,2.108.909l1.769-4.1a46.441,46.441,0,0,1,12.517,8.523l-3.144,3.142A1.148,1.148,0,0,0,81.713,22.6l3.142-3.144a46.472,46.472,0,0,1,9.064,13.729l-4.155,1.651a1.148,1.148,0,1,0,.848,2.134l4.158-1.651A46.036,46.036,0,0,1,97.6,50.2h-4.46a1.148,1.148,0,1,0,0,2.3H97.6a45.993,45.993,0,0,1-3.32,16.116l-4.1-1.769a1.148,1.148,0,0,0-.909,2.108Z" transform="translate(0 0)" fill="#fff"/>
    </g>
  </g>
</svg>
