<svg xmlns="http://www.w3.org/2000/svg" width="100%" height="100%" viewBox="0 0 155 155">
  <g id="Group_921" data-name="Group 921" transform="translate(-187 -1529.957)">
    <circle id="Ellipse_115" data-name="Ellipse 115" cx="77.5" cy="77.5" r="77.5" transform="translate(187 1529.957)" fill="#1d1d1d"/>
    <g id="Group_690" data-name="Group 690" transform="translate(218.789 1562.622)">
      <path id="Path_1777" data-name="Path 1777" d="M74.153,82.7A4.573,4.573,0,0,1,70.9,81.353l-39.9-39.2A18.969,18.969,0,0,1,7.65,17.75l.7-2.029,9.63,9.646L25.8,24.2l1.167-7.811L17.319,6.758l2.028-.7a18.973,18.973,0,0,1,24.41,23.341l8.515,8.366L83.654,68.594a4.607,4.607,0,0,1,0,6.507h0l-6.248,6.248A4.569,4.569,0,0,1,74.153,82.7ZM31.717,39.081,72.8,79.447a1.912,1.912,0,0,0,2.7,0L81.752,73.2a1.914,1.914,0,0,0,.005-2.7L50.388,39.678l-9.715-9.544.28-.8a16.384,16.384,0,0,0-3.867-16.871A16.147,16.147,0,0,0,22.374,8l7.451,7.438L28.162,26.563,17.041,28.227,9.6,20.776a16.144,16.144,0,0,0,4.456,14.711,16.386,16.386,0,0,0,16.871,3.868Z" fill="#fff"/>
      <path id="Path_1778" data-name="Path 1778" d="M16.6,84.6a4.291,4.291,0,0,1-3.042-1.258l-7.3-7.3a4.326,4.326,0,0,1,0-6.1L25.044,51.149A1.765,1.765,0,0,1,25.211,51a3.787,3.787,0,0,1,4.811-.179c.029.02.056.04.082.061l0,0c.025.019.067.05.116.091a1.711,1.711,0,0,1,.193.165l8.038,8.039a1.746,1.746,0,0,1,.168.2,1.629,1.629,0,0,1,.111.15l.03.037a3.781,3.781,0,0,1-.188,4.835c-.046.051-.09.1-.135.142l-18.795,18.8A4.294,4.294,0,0,1,16.6,84.6Zm10.31-31.51L8.163,71.835a1.633,1.633,0,0,0,0,2.3l7.3,7.3a1.614,1.614,0,0,0,2.281,0L36.538,62.641l.04-.043a1.107,1.107,0,0,0,.052-1.4l-.013-.015c-.042-.053-.074-.1-.1-.131l-.02-.025L28.567,53.1c-.02-.015-.042-.033-.067-.054l-.048-.037c-.017-.012-.033-.023-.049-.036a1.115,1.115,0,0,0-1.412.047C26.968,53.039,26.94,53.062,26.912,53.085Zm11.667,6.242.028.032ZM26.948,53.049h0Zm1.473-.068.013.011ZM25.2,51.012l-.009.008Zm5.055-.007.011.01Z" fill="#fff"/>
      <path id="Path_1779" data-name="Path 1779" d="M71.315,20.743l-1.9-1.905L50.449,37.731l1.9,1.905Z" fill="#fff"/>
      <path id="Path_1780" data-name="Path 1780" d="M41.4,50.49l-1.9-1.906L32.719,55.34l1.9,1.906Z" fill="#fff"/>
      <path id="Path_1781" data-name="Path 1781" d="M75.639,22.3l-4.964-.2L67.761,19.19l.106-4.734,9.117-6.433L82.1,13.142Zm-3.806-2.845,2.452.1L78.6,13.442l-1.915-1.916-6.159,4.346-.05,2.229Z" fill="#fff"/>
      <path id="Path_1782" data-name="Path 1782" d="M31.152,60.5l-1.9-1.9L13.4,74.451l1.9,1.9Z" fill="#fff"/>
    </g>
  </g>
</svg>
