<svg xmlns="http://www.w3.org/2000/svg" width="100%" height="100%" viewBox="0 0 155 155">
  <g id="Group_928" data-name="Group 928" transform="translate(-1315.003 -1741.957)">
    <circle id="Ellipse_122" data-name="Ellipse 122" cx="77.5" cy="77.5" r="77.5" transform="translate(1315.003 1741.957)" fill="#1d1d1d"/>
    <g id="Group_692" data-name="Group 692" transform="translate(1350.322 1779.166)">
      <path id="Path_1785" data-name="Path 1785" d="M85.583,17.613H74.251V12.382a1.368,1.368,0,0,0-1.372-1.372H57.227a1.368,1.368,0,0,0-1.372,1.372v5.231H31.793V12.382a1.368,1.368,0,0,0-1.372-1.372H14.769A1.368,1.368,0,0,0,13.4,12.382v5.231H1.372A1.38,1.38,0,0,0,0,19V66.675a1.368,1.368,0,0,0,1.372,1.372h84.2a1.368,1.368,0,0,0,1.372-1.372V19A1.36,1.36,0,0,0,85.583,17.613ZM58.6,13.768H71.493v3.859H58.6Zm-42.458,0H29.035v3.859H16.141ZM84.2,65.289H2.758V20.371H84.21V65.289Z" transform="translate(0 0)" fill="#fff"/>
      <path id="Path_1786" data-name="Path 1786" d="M11.232,36.165H26.884a1.372,1.372,0,1,0,0-2.745H11.232a1.372,1.372,0,1,0,0,2.745Z" transform="translate(3.536 8.038)" fill="#fff"/>
      <path id="Path_1787" data-name="Path 1787" d="M42.482,38.23h6.454v6.454a1.372,1.372,0,0,0,2.745,0V38.23h6.454a1.372,1.372,0,1,0,0-2.745H51.68V29.032a1.372,1.372,0,0,0-2.745,0v6.454H42.482a1.372,1.372,0,0,0,0,2.745Z" transform="translate(14.745 5.972)" fill="#fff"/>
    </g>
  </g>
</svg>
